<?xml version="1.0" standalone="no"?><!DOCTYPE svg PUBLIC "-//W3C//DTD SVG 1.1//EN" "http://www.w3.org/Graphics/SVG/1.1/DTD/svg11.dtd"><svg t="1565180895121" class="icon" viewBox="0 0 1024 1024" version="1.1" xmlns="http://www.w3.org/2000/svg" p-id="9689" xmlns:xlink="http://www.w3.org/1999/xlink" width="48" height="48"><defs><style type="text/css"></style></defs><path d="M53.894737 821.894737V397.473684h913.893052v424.421053c0 51.900632-30.181053 94.315789-81.111578 94.315789H135.006316C85.477053 915.132632 53.894737 877.406316 53.894737 821.894737zM655.737263 646.736842a26.947368 26.947368 0 0 0-25.6 18.432l-35.893895 107.789474A26.947368 26.947368 0 0 0 619.789474 808.421053h212.668631a26.947368 26.947368 0 0 0 25.546106-18.432l35.947789-107.789474a26.947368 26.947368 0 0 0-25.546105-35.462737h-212.668632zM135.006316 161.684211C84.075789 161.684211 53.894737 201.781895 53.894737 251.311158v63.595789h916.210526v-63.595789C970.105263 201.728 939.924211 161.684211 888.993684 161.684211H135.006316z" fill="#F16252" p-id="9690"></path></svg>